<svg version="1.1" xmlns="http://www.w3.org/2000/svg" xmlns:xlink="http://www.w3.org/1999/xlink" width="24px" height="24px" viewBox="0,0,256,256"><g fill="#ebe5e5" fill-rule="nonzero" stroke="none" stroke-width="1" stroke-linecap="butt" stroke-linejoin="miter" stroke-miterlimit="10" stroke-dasharray="" stroke-dashoffset="0" font-family="none" font-weight="none" font-size="none" text-anchor="none" style="mix-blend-mode: normal"><g transform="translate(130.03771,-39.47944) rotate(132) scale(10.66667,-10.66667)"><path d="M17.5,6.05c-0.25,-2.83 -2.61,-5.05 -5.5,-5.05c-2.89,0 -5.25,2.22 -5.5,5.05c-1.41,0.23 -2.5,1.45 -2.5,2.95c0,1.66 1.34,3 3,3l5,10l5,-10c1.66,0 3,-1.34 3,-3c0,-1.5 -1.09,-2.72 -2.5,-2.95M12,17.53l-3.11,-6.22c0.06,-0.05 0.11,-0.1 0.19,-0.15c0.85,0.53 1.85,0.84 2.92,0.84c1.07,0 2.07,-0.31 2.92,-0.84c0.08,0.05 0.13,0.1 0.19,0.15z"></path></g></g></svg>